<?xml version="1.0" encoding="utf-8"?>
<!-- Generator: Adobe Illustrator 26.3.1, SVG Export Plug-In . SVG Version: 6.00 Build 0)  -->
<svg version="1.1" id="Layer_2_00000052083006874156631540000014538024607531053719_"
	 xmlns="http://www.w3.org/2000/svg" xmlns:xlink="http://www.w3.org/1999/xlink" x="0px" y="0px" viewBox="0 0 227.6 297.9"
	 style="enable-background:new 0 0 227.6 297.9;" xml:space="preserve">
<g id="General">
	<g>
		<path d="M51.2,0v52.9H36.5V31.6H18.6v21.2H3.9V0h14.7v19.9h17.9V0H51.2z"/>
		<path d="M97.7,34.8H69.9c0.2,2.3,0.8,4,1.9,5.1s2.6,1.7,4.3,1.7c2.4,0,4.2-1.1,5.2-3.3H97c-0.7,2.9-1.9,5.5-3.8,7.8
			c-1.9,2.3-4.2,4.1-7.1,5.4s-6,2-9.4,2c-4.2,0-7.8-0.9-11.1-2.6s-5.8-4.2-7.6-7.5c-1.8-3.2-2.7-7.1-2.7-11.5s0.9-8.2,2.7-11.4
			c1.8-3.2,4.3-5.7,7.5-7.5c3.2-1.8,6.9-2.6,11.1-2.6s7.8,0.9,11,2.6c3.2,1.7,5.7,4.1,7.5,7.3c1.8,3.2,2.7,6.9,2.7,11.2
			C98,32.5,97.9,33.7,97.7,34.8z M82.9,27.7c0-1.8-0.6-3.2-1.8-4.2c-1.2-1-2.7-1.5-4.5-1.5s-3.3,0.5-4.4,1.5c-1.2,1-1.9,2.4-2.2,4.3
			L82.9,27.7L82.9,27.7z"/>
		<path d="M147.4,10.8l-26.7,62.1h-16l10.1-21.8L97.5,10.8h16.3l8.8,23.9l8.6-23.9C131.2,10.8,147.4,10.8,147.4,10.8z"/>
		<path d="M165.1,40.3l-8,21.9h-9.3l3.9-21.9H165.1L165.1,40.3z"/>
		<path d="M51.2,75v52.9H36.5v-21.2H18.6v21.2H3.9V75h14.7v19.9h17.9V75H51.2z"/>
		<path d="M66,125.8c-3.3-1.8-5.9-4.2-7.8-7.5s-2.8-7.1-2.8-11.5s1-8.2,2.9-11.4c1.9-3.2,4.5-5.8,7.9-7.5c3.3-1.8,7.1-2.6,11.3-2.6
			s8,0.9,11.3,2.6c3.3,1.8,5.9,4.2,7.9,7.5c1.9,3.2,2.9,7.1,2.9,11.4s-1,8.2-2.9,11.4s-4.6,5.8-7.9,7.5c-3.3,1.8-7.1,2.6-11.3,2.6
			S69.4,127.5,66,125.8L66,125.8z M82.5,113.4c1.4-1.5,2.1-3.7,2.1-6.6s-0.7-5-2.1-6.5c-1.4-1.5-3.1-2.2-5.1-2.2s-3.7,0.8-5,2.2
			c-1.3,1.5-2,3.7-2,6.5s0.7,5.1,1.9,6.6c1.3,1.5,3,2.2,5,2.2S81.1,114.9,82.5,113.4z"/>
		<path d="M165.8,85.8L155,127.9h-16.5l-5.9-25.5l-6.1,25.5h-16.4L99.5,85.8h14.6l4.7,27.9l6.2-27.9h15.8l6.4,28l4.6-28H165.8z"/>
		<path d="M171.7,75h14.9l-8.6,21.2h-9.8L171.7,75L171.7,75z"/>
		<path d="M199.9,126.5c-3-1.3-5.3-3-7.1-5.2c-1.7-2.2-2.7-4.7-2.9-7.5h14.2c0.2,1.3,0.8,2.4,1.9,3.2s2.4,1.1,3.9,1.1
			c1.2,0,2.1-0.2,2.9-0.8c0.7-0.5,1.1-1.2,1.1-1.9c0-1.1-0.6-1.8-1.7-2.3s-3.1-1.1-5.7-1.7c-3-0.6-5.5-1.3-7.5-2s-3.7-2-5.2-3.7
			c-1.5-1.7-2.2-4-2.2-6.9c0-2.5,0.7-4.8,2-6.8s3.3-3.6,6-4.8s5.8-1.8,9.5-1.8c5.5,0,9.8,1.3,13,4.1c3.1,2.7,5,6.2,5.5,10.7h-13.3
			c-0.2-1.3-0.8-2.4-1.8-3.1c-0.9-0.7-2.2-1.1-3.7-1.1c-1.2,0-2.1,0.2-2.7,0.7s-0.9,1.1-0.9,1.9c0,1,0.6,1.8,1.7,2.3
			c1.1,0.5,3,1.1,5.6,1.6c3.1,0.7,5.6,1.4,7.6,2.2c2,0.8,3.8,2.1,5.3,3.9c1.5,1.8,2.3,4.2,2.3,7.2c0,2.4-0.7,4.7-2.1,6.6
			c-1.4,1.9-3.4,3.5-6.1,4.6s-5.7,1.7-9.3,1.7C206.3,128.4,202.9,127.7,199.9,126.5L199.9,126.5z"/>
		<path d="M52,150l-18.6,36.1v16.8H18.6v-16.8L0,150h16.8l9.3,20.4l9.3-20.4H52L52,150z"/>
		<path d="M62.9,200.8c-3.3-1.8-5.9-4.2-7.8-7.5s-2.8-7.1-2.8-11.5s1-8.1,2.9-11.4c1.9-3.2,4.5-5.8,7.9-7.5
			c3.3-1.8,7.1-2.6,11.3-2.6s8,0.9,11.3,2.6c3.3,1.8,5.9,4.2,7.9,7.5c1.9,3.2,2.9,7.1,2.9,11.4s-1,8.2-2.9,11.4s-4.6,5.8-7.9,7.5
			s-7.1,2.6-11.3,2.6S66.2,202.5,62.9,200.8L62.9,200.8z M79.3,188.4c1.4-1.5,2.1-3.7,2.1-6.6s-0.7-5-2.1-6.5
			c-1.4-1.5-3.1-2.2-5.1-2.2s-3.7,0.8-5,2.2c-1.3,1.5-2,3.7-2,6.5s0.7,5.1,1.9,6.6c1.3,1.5,3,2.2,5,2.2S77.9,189.9,79.3,188.4
			L79.3,188.4z"/>
		<path d="M143.5,160.8v42.1h-14.8v-6c-1.2,1.9-3,3.4-5.2,4.6c-2.2,1.2-4.7,1.8-7.6,1.8c-4.9,0-8.8-1.6-11.6-4.8
			c-2.8-3.2-4.2-7.6-4.2-13.2v-24.4h14.6v22.6c0,2.4,0.6,4.3,1.9,5.7c1.3,1.4,3,2.1,5.1,2.1s3.8-0.7,5.1-2.1
			c1.2-1.4,1.9-3.3,1.9-5.7v-22.6H143.5L143.5,160.8z"/>
		<path d="M170.7,162.5c2.4-1.4,4.9-2.1,7.6-2.1v15.7h-4.1c-3.2,0-5.6,0.6-7.1,1.9c-1.6,1.2-2.3,3.4-2.3,6.5v18.4H150v-42.1h14.7
			v7.4C166.4,165.8,168.4,163.9,170.7,162.5L170.7,162.5z"/>
		<path d="M39.4,228.3c4.2,2.2,7.4,5.3,9.6,9.3s3.4,8.6,3.4,13.7c0,5.2-1.1,9.7-3.4,13.7c-2.3,4-5.5,7.1-9.7,9.4
			c-4.2,2.3-9,3.4-14.5,3.4H3.9V225h20.9C30.4,225,35.2,226.1,39.4,228.3L39.4,228.3z M33.8,261.4c2.5-2.4,3.7-5.7,3.7-10
			s-1.2-7.7-3.7-10.1c-2.5-2.4-5.8-3.6-10.1-3.6h-5.1v27.1h5.1C28,264.9,31.4,263.7,33.8,261.4z"/>
		<path d="M57.1,245.4c1.6-3.2,3.7-5.8,6.5-7.5c2.7-1.8,5.8-2.6,9.1-2.6c2.9,0,5.4,0.6,7.5,1.7c2.1,1.1,3.7,2.7,4.9,4.6v-5.9h14.7
			v42.1H85V272c-1.2,2-2.8,3.5-4.9,4.6c-2.1,1.1-4.6,1.7-7.5,1.7c-3.3,0-6.4-0.9-9.1-2.6c-2.7-1.8-4.9-4.3-6.5-7.5
			c-1.6-3.3-2.4-7.1-2.4-11.4S55.5,248.7,57.1,245.4L57.1,245.4z M82.8,250.4c-1.5-1.6-3.3-2.3-5.4-2.3s-4,0.8-5.5,2.3
			c-1.4,1.5-2.2,3.7-2.2,6.4c0,2.8,0.7,4.8,2.2,6.4c1.4,1.6,3.3,2.4,5.5,2.4s4-0.8,5.4-2.3c1.5-1.5,2.2-3.7,2.2-6.5
			S84.3,252,82.8,250.4L82.8,250.4z"/>
		<path d="M151.6,235.8l-26.7,62.1h-16l10.1-21.8l-17.2-40.3h16.3l8.8,23.9l8.6-23.9L151.6,235.8L151.6,235.8z"/>
	</g>
</g>
</svg>
